<svg width="53" height="52" fill="none" xmlns="http://www.w3.org/2000/svg"><path d="M7.824 6.076C13.64.42 23.001-1.367 30.917 1.052c7.915 2.456 14.35 9.118 18.274 17.418 3.958 8.3 5.369 18.237 1.618 23.633-3.786 5.36-12.734 6.216-20.925 7.704-8.225 1.526-15.693 3.722-20.993.633C3.59 47.35.459 39.014.046 30.082c-.413-8.895 1.927-18.386 7.778-24.006Z" fill="#16697A"/><path d="M21.108 36.94c.11-.081.028-.268.028-.402.081-.134.081-.214.109-.401h.081c.028-.268.137-.535.055-.75.109-.24.055-.4.136-.561-.027-.268.137-.348.055-.59.054-.347.082-.748 0-1.096.082-.08.054-.187.054-.268.137-.026.082-.187.055-.267.109-.188.027-.455.109-.67-.11-.133.027-.32-.082-.48.082-.268 0-.429.082-.643-.11-.588.054-1.284-.11-1.9.055-.026.055-.133.028-.16.027 0 0-.054.055-.054-.082-.24 0-.588-.137-.749.027-.027.082-.027.055-.08-.027-.054-.082.027-.082-.027-.055-.267.136-.588-.027-.856.082-.08.054-.321 0-.428.054-.482.027-.856.027-1.418 0-.214.027-.509.027-.67-.027-.16-.082-.614.055-.721a.527.527 0 0 0-.055-.241c.082-.054.027-.08.027-.16h.055c.027-.75-.027-1.553 0-2.275-.027.027-.027 0-.027-.027 0-.134.054-.187 0-.294.054-.08.163-.134.218-.241-.055.027-.136.027-.191.027-.082-.188-.054-.241-.054-.482-.11-.294.136-.642-.028-.883.082-.107.11-.267.11-.401 0-.214.027-.428.054-.642.054-.402.054-.75.136-1.044-.027-.24.164-.481.164-.695.19-.188.218-.429.436-.59.218-.026.49-.08.709-.16 0 .027 0 .054.054.054.136-.08.382-.054.572-.16-.027-.215.41-.135.546-.268.027.027.136.027.163 0 0-.054-.136 0-.163-.08.463-.054.817-.027 1.226-.161.028.027 0 .027 0 .053.11-.08.164-.053.355-.053.272-.214.654-.16 1.036-.16.054-.134.245-.108.354-.188.109.08.163 0 .327-.027.409.107.79-.133 1.281-.08.055-.027.055-.08.11-.08.3 0 .408-.054.735 0-.027-.054.028-.054.055-.08.027.026.027.053.082.053-.028-.027.027-.027.054-.027.082.08.19-.08.273 0 0 .027-.055 0-.082.027a.673.673 0 0 1 .327 0c.027-.107.136-.134.218-.107.055-.053.164-.027.218-.053.273.107.545-.054.818 0 .055-.027.082-.054.136-.027.027 0 .027-.054.082-.054.11.027.19.027.3 0-.082-.08-.245-.08-.382-.134-.136-.053-.218-.053-.354-.107h-.19l-.083-.08c-.027.027.028.054 0 .054-.9-.241-1.853-.107-2.644-.295-.19.054-.463-.053-.654-.026 0-.027-.027-.027-.055-.054-.627 0-1.335-.027-1.935-.027-1.145 0-2.262.16-3.544.16-.027.054-.081.054-.136.054-.6.027-1.118.08-1.8.134-.517.054-1.035.134-1.58.214-.245.054-.518.054-.763.107-.164 0-.273.08-.436.107-.764.134-1.527.241-2.181.455-.027 0-.055-.027-.082-.027-.273.08-.518.16-.845.16a.6.6 0 0 1-.136-.08c-.055.054-.11.054-.191.054a.203.203 0 0 1-.055.134c-.109 0-.136.08-.218.053-.218.295 0 .616.027.91 0 .16-.027.268 0 .401.055.188 0 .295.082.482-.027.24.055.535.218.642.028.134.11.188.164.321.327.214.545-.053.736-.267.027 0 .054-.027.082-.054.109.054.245-.053.327-.107.436-.08.872-.348 1.363-.401.054-.054.163-.107.245-.054.164-.107.382-.107.6-.214.518-.053.954-.24 1.526-.374-.081 1.07-.027 2.033-.081 2.996-.028 0-.055 0-.055.027.027 0 .055 0 .055.027.054.883.136 1.712.163 2.488-.027.027-.055.027-.109.027-.027.054.055 0 .055.054.054 0 .054.053.081.08-.027.053-.054.027-.082.08.082-.027 0 .027.028.054-.055-.027-.055.026-.11 0 0-.054 0-.054-.026-.027-.028.027 0 .027 0 0 .054-.107-.055-.027-.055-.107.027 0 .055 0 .055-.027-.028 0-.028 0-.028-.027-.109.054-.218.107-.3.214.028 0 .028 0 .028.027.027 0 .081 0 .054.027.082.027.055-.054.136-.054-.027-.026.055-.08.055-.026 0 .053-.027.053-.055.026-.027.107-.136.107-.19.16-.028-.053.054-.026.054-.08-.054 0-.054-.026-.054-.053-.191 0-.218.187-.436.214-.137.241-.437.295-.6.509-.273.107-.464.454-.764.588 0 .241-.272.241-.3.455.028.027.028.054 0 .107.055 0 0 .054 0 .054v-.027c-.136-.027.028-.107-.054-.134-.109.107-.109.24-.3.268.028 0 .055.053 0 .053 0 0 .028 0 .028.027-.055-.027-.082.053-.137.027.027.08-.027.16-.082.107 0 .107-.081.187-.108.267 0 .027-.055.241-.164.188 0 .08.054.026.054.053-.109.08-.136.321-.272.321-.027.134-.082.16-.11.294.028.054.055.134-.054.134 0-.027.027-.08-.027-.08-.136.455-.572.776-.572 1.23-.028 0 0-.08-.055-.053-.027.08.027.08.055.134-.028.027-.055.027-.082.027 0 .053.054.026.027.107-.163.16-.027.401-.245.508 0-.027.027-.107-.027-.107-.028.027-.028.08-.028.134 0 0-.027-.027-.054-.027 0 .054-.028.134.027.134v-.054.054c-.027.027-.055.053-.055.08.028 0 .028.027.055.054-.055.053-.055.187-.11.24 0 0 0-.026-.026-.026-.055.08.027.134-.028.214-.054 0-.054-.054-.081-.08 0 .16.081.32-.082.454.027.08-.027.375-.082.509.055.053-.055.107.055.133-.028.08-.082.134-.11.241.028.027 0 .054-.027.054s-.027-.054-.082-.054c-.027.16.028.16-.054.268 0 .053.054-.054.054.027 0 .053.028.16-.027.16-.054 0 .027-.134-.054-.107-.027.321-.191.535-.11.856-.081.027-.054-.026-.108 0 0 .054.054.054.054.08-.136-.026-.054.188-.136.215.054 0 .054.026.054.053-.054.16-.109.348-.136.482-.027.053.055.027.027.08-.027 0-.054 0-.054.027.054.16-.137.348-.027.481-.11.027 0 .161-.11.188.082.026-.027.16 0 .214-.054 0-.027-.08-.054-.08 0 .187.11.454-.055.561.028 0 .055 0 .055.027-.027.214.027.616-.082.83.027-.054 0-.054-.027-.054.082.08-.082.187 0 .24 0-.026 0-.053.027-.053 0 .027 0 .054-.027.054.054.08.054.267 0 .321 0 .08.054.107.109.16-.055 0-.109-.026-.109.027.054.054 0 .214 0 .295.027 0 .082-.027.082 0-.11.026-.028.133-.028.187-.027 0-.027-.027-.054-.027.054.16-.027.348 0 .589 0 .026-.027.026-.027.026.081.375 0 .803.054 1.205-.027.053-.082 0-.082.053.028 0 .11-.027.082.027-.027.107 0 .187.027.374h-.054c0 .027.082.027.082.054-.028.107.054.321-.028.428.137.08 0 .348.164.428h-.055c.055.08-.027.107.055.16.027-.053-.055-.106.055-.133-.028.107.054.214-.028.24-.027-.026 0-.08-.054-.053.027.134.163.16.163.294-.027.027-.054.027-.081.027-.028.054.054.027.054.054-.136.026.027.16.055.187 0 .054-.082 0-.082.08.163.134.163.402.409.562-.027.16.136.107.136.241.054-.027.027-.027.082 0 .027.053.082.107.109.187-.027 0-.027-.026-.055-.026.137.133.137.267.218.4.082 0 .055-.106.11-.106.081.053.19.08.245.107 0 .053.027.08.027.134.11.026.136-.027.245 0-.027.053.028.026.055.08-.055.027-.055 0-.11 0 0 .08.11.053.11.107.082-.054.082 0 .136.027 0-.027.027 0 0 0 .082.134.273.107.273.214.054.026.054-.027.109 0 0-.054.027-.054.054-.027.028 0 .028-.053.055-.027.027-.053-.055-.08 0-.107.027.027.082.027.082.08.027.054.081.054.136.08-.055.054.027.081.082.028 0 .106.163.08.272.106.055.054-.027.108.082.08-.055-.053-.027-.16.027-.187.028.054.055.08.137.027.027.054-.028.08.027.107.054 0 .082-.107.082.027.081-.053.109-.027.218-.053.027-.027-.027-.054 0-.054.081.107.245-.053.354 0-.027-.053.055-.107.082-.053-.027.026-.055.026-.055.053.11 0 .137.027.191-.053.164.026.436 0 .627-.108.164.027.3-.133.409-.214.136.027.164-.08.218-.16.382-.107.6-.187.845-.428-.109-.214.19-.268.136-.401.11 0 .137-.08.137-.188.027-.027.082-.027.109-.053 0-.16.081-.241.19-.295 0-.214.219-.32.328-.481-.082-.027-.028.053-.082.026-.027-.08 0-.133.109-.133.027-.054-.055-.08.082-.08.027-.375.272-.723.19-1.017.11.026.082-.08.082-.16-.027 0-.081-.028-.081-.081a.496.496 0 0 0 .136-.268h.082c-.028-.08-.028-.053-.028-.107-.027 0-.027-.026 0-.026v.026Zm2.645-21.727c-.055.027-.11 0-.082-.053.027.027.082 0 .082.053Zm-2.127 5.94c0-.027.027 0 0 0Zm-.49.562c0-.027.027 0 0 0Zm-1.99.482v-.027h.054v.027h-.054Zm-.355.562v-.027h.082c0-.027-.027-.054-.027-.054 0-.027.082-.053.109-.027.027 0 0-.026 0-.053.054-.027.163 0 .136-.107.218-.027.245-.294.436-.268-.054.107.082.188 0 .268.246 2.328.327 4.361.382 7.01-.027.054.027.054.027.08 0 .027-.027.054-.054.08.136.108.109.268.027.375 0 .054.027-.053.082 0-.027.723-.082 1.124-.055 1.686 0 .16-.082.374-.027.481h-.027c0 .054.027.054.027.054-.082.08 0 .294-.082.428.164.08-.027.24-.027.401.054.027 0 .054.054.054 0 .053-.081.027-.054.107 0 .027.027.027.054 0-.054.107.028.321-.136.321 0 .053.055.053.082.08 0 .08-.11.027-.082.08 0 .027.055 0 .055.027-.137.134-.082.455-.137.562 0 .054.055-.027.082 0-.027.054-.082.107-.109.16 0 .108.082 0 .082.081-.027-.027-.082.027-.11.027.028.053 0 .053 0 .107 0 .053.055.026.083.053-.11.054-.137.134-.164.241.027.027.11 0 .11.08-.165-.08-.11.08-.165.16.055.028.055-.026.11-.026 0 .134-.028.241-.055.375-.055 0-.136-.027-.163.026.027.054.108 0 .136-.026.027.107-.027.267-.082.348.027.053-.027.053-.054.08.027.027.027-.027.081 0-.054.294-.163.428-.3.642.082.027.055-.08.11-.08 0 .134-.082.16-.137.24 0 .027.027.027.055.027-.028.054-.055.107-.082.134.109.08-.027.187-.082.24.027.054.11 0 .082.081-.027.027-.055.027-.082 0 0 .054 0 .08-.027.08.027.054.082.027.082.054-.028.187-.082.374-.246.428 0 .027.055.027.055.054-.082 0-.082.08-.082.107 0 .026-.055.026-.082.107-.081.133-.163.374-.3.374a.37.37 0 0 1-.218.268c0 .053.082.026.055.107-.11.08-.164.133-.327.16-.027.054.054.027.054.08-.027 0-.054 0-.054-.026-.027.134-.164.214-.191.374-.082.027-.055-.053-.11-.026-.054.08-.026.16-.08.214-.464-.188-.846-.455-1.091-.83-.028-.026-.082-.026-.11-.053.028-.16-.217-.188-.217-.375-.082-.053-.055-.187-.137-.214a5.456 5.456 0 0 0-.245-.642c0-.375-.136-.508-.136-.91-.082-.107-.164-.32-.082-.481 0-.054-.082-.107-.027-.188-.028 0-.028-.053-.055-.08 0-.75-.054-1.471.055-2.087-.028-.027-.055-.027-.055-.053.082-.482 0-.776.136-1.204-.081-.08.082-.215-.027-.322.082-.133.11-.374.11-.561.135-.268 0-.59.19-.83 0-.027 0-.053-.027-.053.109-.428.245-.776.3-1.15.027 0 .027-.028.054-.028-.027-.053 0-.107-.054-.133.109-.268.218-.482.272-.803.082 0 .027-.107.082-.107-.027-.214.164-.294.11-.455.026 0 .026-.027.054-.027 0-.027 0-.053-.028-.053.082-.08.11-.241.191-.321 0-.027-.027-.027-.054-.027.136-.214.245-.375.327-.696.027 0 .027-.053.081-.026-.027-.215.164-.322.11-.482.163-.214.327-.455.436-.723.054-.026.082-.053.136-.08-.054-.027-.027-.08 0-.134 0-.026-.054 0-.054-.053.19-.134.218-.508.354-.615 0-.027-.027-.027-.027-.027-.055-.027-.055.053-.055.107-.082.053-.163.187-.136.267-.246.188-.218.509-.464.642.055.107-.136.134-.054.241h-.055c-.081.188-.19.321-.218.535-.109.027-.081.215-.163.241-.055.16-.11.294-.191.375v.134c-.136.053-.11.267-.19.347-.055-.053.054-.133 0-.187.299-.669.626-1.418 1.035-2.007-.055-.214.164-.24.109-.374.109-.08.163-.241.245-.348-.054 0-.054.027-.136.027.082.08-.11.08-.027.16 0 .054-.055 0-.082.027.027-.214.218-.268.273-.482.027 0 .054-.026.109-.026-.055-.08 0-.134.081-.134-.081-.054 0-.054-.027-.16.055-.027.055 0 .11 0 0-.08-.083-.054-.164-.054-.082.027-.028.187-.164.187.027-.107.055-.214.136-.267 0-.054-.054-.027-.054-.08.136 0 .136-.134.19-.188 0-.027-.081.027-.081.08-.082-.107.109-.16.109-.214.054-.026.027.054.054.08.055-.026.11-.026.11-.107-.082 0-.082.054-.137 0 0-.053.055-.026.11-.053 0-.134.217-.16.163-.294.054 0 .082-.027.163-.054-.027-.107.027-.16.137-.187-.055-.08 0-.08.027-.16.218.026.19-.215.354-.295-.245.16-.545.428-.845.589 0-.107.164-.08.11-.16.163-.028.217-.162.326-.268Zm2.4-.429c-.028-.026-.028-.026-.028-.053.027 0 .027 0 .027.053Zm-2.29.16s-.028.028-.028 0c0-.026.027-.026.027 0Zm2.316.081c0-.053.082 0 0 0-.027 0 0 .027 0 0Zm-2.535.08h-.027.027Zm2.454 0c-.028 0 0 .027 0 0Zm-2.454.429c0-.027 0-.054.027-.054.055 0 .028.054-.027.054 0 .026-.027 0 0 0Zm2.617 0h-.054.054Zm-2.78.08v-.027h.054c0 .027-.027.027-.054.027Zm2.807-.027c-.027.054-.027 0-.054 0h.054Zm-2.944.321c-.027 0 0 .027 0 0Zm2.917.08c.027-.08.027.08 0 0Zm-3.707.322v-.027h.054c0 .026-.027.026-.027.053-.027 0-.027 0-.027-.027Zm3.789-.027c-.027 0 0 .026 0 0Zm-3.298.053c-.028.027-.055.027-.055 0s.027.027.055 0Zm-.518.08c0 .054-.082.054-.055 0 0-.026.027 0 .055 0Zm.381 0c-.027.08.082-.026 0 0Zm-.627.054c.028.027.055.027.055 0 .027 0 .027.027.054.027v.053c-.081 0-.109 0-.109-.08Zm.464.562c-.027 0-.027-.027-.055-.027-.054.027-.109.214-.218.16.055-.026.082-.08.11-.133-.028-.054 0-.054-.028-.134h.054c.028 0 .028-.027.028-.053h-.082c0-.054.082-.08.136-.054.027-.027 0-.053 0-.134.055 0 .055-.107.164-.08-.027-.053-.027-.107.054-.107-.054.054 0 .08 0 .16-.054-.106-.109.054-.054.108-.027.026-.027.053-.027.107-.028 0-.055-.027-.055-.054-.054 0-.054.134 0 .107 0 .054-.027.08-.027.134 0 0 .027.027 0 .027 0 .026 0 .053-.027.026v-.026h.027v-.027Zm3.298-.508c0-.027.082-.054.082-.027 0 .08-.027 0-.082.027Zm-3.653.026c.028-.08.028.08 0 0Zm3.708.054c0-.027.027 0 0 0-.028.027 0 .027 0 0Zm-4.28.053v-.026h.054c0 .026-.027.026-.054.026Zm4.28.054c-.028 0 0 .027 0 0Zm-4.444.08c0-.08.082 0 .055-.08.054 0 .054.053.082.053 0 .054-.082.027-.137.027Zm4.39.054c0-.027.026-.054.054-.054 0 .027-.028.054-.055.054 0 .026-.027.026.027.026 0 .027-.027.027-.054.027 0-.027 0-.08.027-.053Zm-4.144.187c.027-.054.054-.08.109-.08 0 .053-.027.08-.11.08Zm4.225-.054c.027-.053.027.08 0 0Zm-4.443.107c-.028-.053.027-.107.081-.053-.027.027-.027.08-.081.053Zm4.497.107c.028-.08.028.08 0 0Zm-3.816.027c.027.08-.109.08-.082 0h.082Zm-.109.188v-.054h.082c-.027.053.027.053 0 .107-.055-.053 0 .053-.027.08-.055.027-.028-.053-.082-.053-.027.08.082.08.027.107-.055.027-.055 0-.082 0 0 .027.027.053.027.134-.054 0-.027.053-.081.026.027-.133-.055-.294.136-.348Zm3.87.133c-.08 0 0-.053-.026-.133.054.026 0 .107.027.133Zm-4.66.027c0-.027.081 0 .081-.053.028 0 0 .026.028.053h-.11Zm-.028.054c.055 0 .055-.027.082-.027.027.08-.055.053-.027.107-.027 0-.055-.027-.055-.08Zm1.063.107c-.054.026-.054-.027-.054-.08.027.026.082.026.054.08Zm.082-.054c0 .027-.054.027-.054.027 0-.027.027-.027.054-.027Zm-.572.214c.027-.08-.055-.053-.027-.16h.054c.027.053.082.16-.027.16Zm-.682-.053v-.054h.055c0 .027-.028.027-.028.054h-.027Zm-.054.16c-.027 0 0-.053-.027-.08h.081c.027.053-.054.027-.054.08Zm-.027.027c-.028.027-.028 0-.055 0 0-.027.055-.027.055 0Zm.572.08c0-.053.054-.053.054-.107.082 0 .028.16-.054.107Zm.381-.053v-.027h.055v.027h-.055Zm-1.035.053c-.082.027 0-.053 0 0 .027.027.027.027.027.054h-.055c0-.027.028-.027.028-.054Zm.518.268c0-.08 0-.16.081-.214.028.08-.027.187-.081.214 0 .026 0 .053-.055.026v-.026h.055Zm.463-.08c-.109 0-.027-.054-.027-.134.082.053.027.053.027.133Zm-.273.107c-.054 0-.027-.054-.054-.054 0-.027.054 0 .054.053Zm-.327.187c-.081-.027.055-.107 0-.107 0-.027.028-.027.055-.027 0 .08-.027.08-.055.134Zm-.109.32c.027-.133.027-.133 0-.24.055 0 .11.027.191.054 0 .107-.054.133-.054.24-.055 0-.055-.08-.137-.053Zm3.571 0c-.027 0 0 .028 0 0Zm-3.407.188c.054 0 .027-.08.082-.053-.055.053 0 .08.027.133-.082 0-.055.108-.136.108.054.08 0 .187-.11.213.028.054 0 .08 0 .161-.054 0-.054-.027-.081-.053.081-.107.109-.295.19-.429 0-.026-.054-.026-.027-.08-.027.027-.054 0-.054.027-.055-.027 0-.134.082-.08-.028.026.027.026.027.053Zm-.3.054c0 .026-.027.026-.055.026 0 0 .028 0 .055-.026Zm.681.08c.028-.054.028.08 0 0Zm-1.417.054c-.082.08.054.08 0 0Zm.872.053c-.027.027-.027 0-.054 0 0-.027.054-.027.054 0Zm0 .027c.027-.08.027.08 0 0Zm-1.036.107c.028-.054.055.026.082-.027.055.027-.054.053-.027.107-.027 0-.055-.027-.055-.08Zm-.027.187c0-.027.027-.027 0 0 0 .027-.027.027 0 .054-.054 0-.027-.054 0-.054Zm1.009.214c-.055-.053-.082-.08-.055-.16.055.053.082.107.055.16Zm-1.281.321c0-.053.027-.08.081-.08-.054.027 0 .107-.081.08Zm1.226.375c0-.107.055-.295.11-.348.054-.027.054 0 .081 0-.082.107-.055.267-.19.348Zm-1.28-.241c0-.054.026-.08.08-.08.028.053-.026.053-.026.107-.055.026 0-.054-.055-.027Zm1.307.321c-.027 0-.081-.027-.027-.053.027 0 .027.026.027.053Zm-.245.455c.027-.187.11-.268.137-.375 0 .107.027.321-.11.375h-.027Zm-1.254-.294c0-.054.027-.08.055-.08v.08h-.055Zm-.19-.027c0-.027.027 0 0 0Zm.054.24c.109.08.055-.08.082-.133.027 0 .054.027.082.027-.028.16-.137.267-.164.454-.082 0-.082-.107-.055-.187.055 0 .055.027.082.027.027-.08-.082-.107-.027-.187Zm-.218 0c.027-.08.027.08 0 0Zm1.526.375c-.027-.08.028-.214.082-.294.027 0 0 .053.027.053-.054.241-.081.402-.218.562 0-.08.028-.267.11-.32Zm-1.608.054v-.08c.082 0 .082.053.082.107-.027-.027-.055-.027-.082-.027Zm.19.107c-.054-.027.083-.107 0-.188.11 0 .055.188 0 .188Zm-.163-.027v-.053h.055v.053h-.055c0 .053.055.053.028.08-.055 0-.055-.026-.082-.026 0-.027 0-.08.054-.054Zm.082.107v-.027c.055 0 .082.027.082.08-.055 0-.11 0-.082-.053Zm0 .214c0-.053-.054-.107 0-.134.082-.027.055.16 0 .134Zm1.309 0c0-.053.054-.027.054-.08.027.053.055.16-.027.187-.055-.053.027-.08-.027-.107Zm-1.418.08c.027-.053.055-.08.11-.053 0 .027-.028.053-.028.08-.027 0-.027-.027-.082-.027Zm.055.054c.027-.054.054.053 0 0-.082 0-.028.053 0 0Zm1.199.669c0-.241.082-.455.164-.696.054.054.027.107.027.134-.055.24-.191.562-.218.776-.082-.027-.027-.134.027-.214Zm-1.336-.509c0-.08.082-.08.137-.053-.028.053-.11.08-.137.053Zm-.381 1.15c.054.028-.082.108-.055.028l.055-.027Zm-.164.51c-.054.053.055-.054 0 0Zm6.16.722c-.054.026-.054-.027-.054-.054.027.027.055.027.055.054Zm-.326 2.622c-.028.026-.028 0-.055 0h.055Zm-.11.187c.028 0 .055-.027.082-.027v.054c-.027 0-.109.027-.081-.027Zm-6.078.589c-.028-.027-.028 0 0 0 0 .026.027 0 0 0Zm5.751 1.043c-.081.054.082.054 0 0Zm-.136.83c0 .026-.027.026-.054.026 0-.026.027-.026.054-.026Zm-5.534.695c.028-.08.028.08 0 0Zm.191.91c0-.053 0 .08 0 0Zm5.18.669c-.028-.027-.028-.054-.028-.08.055 0 .055.026.11.026-.028.027-.028.054-.082.054Zm-3.899.508v-.026h.028v.026h-.027Zm-.272.241c.027-.08.027.08 0 0Zm2.344.375c0-.027.055 0 .055-.054.054 0 .027.054.082.054 0 .053-.11.026-.137 0Zm-1.526-.027c0 .027-.027.027-.055.027 0-.027.027-.027.055-.027Zm.027.134c-.027-.054.082-.054 0-.08 0-.027.082 0 .109-.027 0 .08.027.107.11.08-.028.08-.137 0-.219.027Zm-.136-.027c.027-.027.027-.027.054-.027 0 .027 0 .027-.054.027Zm1.036.134-.028-.027c0-.027.11-.027.082.027h-.055Zm1.608.026v-.053c.054-.027.054.08 0 .053Zm-1.936-.026c0 .026-.109.026-.081-.027.027 0 .054.027.081.027Zm.164 0c0 .026-.027.026-.055.026 0-.026.028-.026.055-.026Zm-.164.107v-.054h.028v.054h-.028Zm.11-.027c.027-.08.027.08 0 0Zm-.028.027c.082.026.164-.054.164.053-.055-.026-.137.054-.164-.053Zm1.063 0c-.027 0 0 .026 0 0Zm-.381.107c0 .053-.055 0-.082-.027.027-.053.082.027.082.027Zm8.423-25.954c0 .027-.055 0-.027.054.027 0 .081-.054.027-.054Zm-.327 0c-.055.027-.137 0-.137.054.055 0 .137 0 .137-.054Zm.109 0v.054h.054v-.054h-.054Zm-.546.027c.028.107.191.053.246 0-.055.027-.136 0-.245 0Zm-5.288 6.77c0-.027.027-.027 0 0Zm.136-.027c-.054 0-.054.026-.081.053.027.027.054-.053.081 0 .028 0 0-.027 0-.053Zm0 .053c-.054 0 .028.08 0 0Zm0 .107c-.081-.027 0 .054 0 0Zm-.354.16v-.026.027Zm.245.161c0-.027.028 0 0 0Zm-.054.054c0-.054.082.026 0 0Zm-.027.026s.027 0 .027-.026c-.027 0-.027.026-.027.026Zm0 0c-.027.027 0 .027 0 0Zm-.464.215c.028 0 .028.053 0 0Zm.246.16c-.028 0 0 .027 0 0Zm-.137.08c.028 0 .028.027.055 0 0-.026-.055-.026-.055 0Zm-.109.08c-.082.054.082.054 0 0Zm-.409.563c.055 0 .055-.08.11-.134-.082.026-.082.08-.11.134Zm-.109.107c-.054 0 0 .026 0 0Zm-1.335.4v-.026.027Zm-.355.135c-.027 0-.027-.027-.027-.027-.027.027-.055.08 0 .08h.027v-.053Zm1.69.24c0-.026.028 0 .028-.026-.028 0-.028 0-.028.026Zm0 0c-.081.027-.19.054-.19.107-.082.027-.137.027-.137.08.137.054.218-.106.327-.187Zm-1.99.241c-.027 0 0 .027 0 0Zm5.48.616c0-.08 0 .08 0 0Zm.054.695c-.027 0 0 .027 0 0Zm0 .054c-.027 0 0 .027 0 0Zm-5.18.508c-.026 0 0 .027 0 0Zm-1.744.723c-.027-.027-.027 0 0 0Zm0 0v.026h.027c0-.026-.027-.026-.027-.026Zm-.027.133c0 .027 0 .107.027.054 0-.027-.027-.107-.027-.054Zm-.518 1.713c-.027 0 0-.027 0 0Zm7.578 0c0-.027.027-.027.027-.027 0 .027-.027 0-.027.027Zm-7.632.374-.055-.053c-.027.053.027.053.054.053Zm5.615.214c-.11.107.082-.026 0-.026v.026Zm2.044.188c0 .053-.054.053-.027.107.055.026.055-.107.027-.107Zm-2.044.16c0-.027.027 0 0 0Zm-5.97 0c-.027 0-.027 0-.054.027.027 0 .054-.027.054-.027Zm5.97 0v.08c.055.027.055-.08 0-.08Zm2.017.027s.027 0 .027-.027c0 0-.027 0-.027.027Zm-2.017.535s-.027 0-.027.027c.027.053.054-.027.027-.027Zm-6.215.375c-.027 0 0 .026 0 0Zm8.205.374c0 .134.054-.08 0 0Zm-8.205.027c.027-.08.027.08 0 0Zm-.082.16c-.055-.08-.027.054 0 0Zm8.287 0h.027c0-.026-.027-.026-.027 0Zm-8.287.215c.027-.08.027.08 0 0Zm-.273 1.418c0 .026 0 .08.028.053 0-.026 0-.053-.028-.053Zm.028.99c0-.054-.055-.054-.055 0 .027-.027.027 0 .055 0Zm0 0c-.082.053.054.026 0 0Zm6.215.481c-.11 0-.027.08 0 0Zm-6.27.134c0-.027.027 0 0 0Zm0 .134c-.027.027 0 .027.027.053 0-.053-.027-.053-.027-.053Zm.055.08c-.028 0 0 .027 0 0Zm-.082.16c0 .027 0 .054.027.054 0-.027.027-.027.027-.053h-.054Zm6.133.161c.027-.027.11-.08.055-.107-.027.027-.082.027-.055.107Zm0 0c-.027 0 0 .027 0 0Zm-.027.08v.027c.027 0 .109.027.082-.026h-.082Zm-6.024.215c-.028-.027-.028 0 0 0Zm6.024.214c0-.08-.027-.108 0-.161-.082 0-.082.134 0 .16Zm-.054.133c-.055 0-.082 0-.082.054.027 0 .082 0 .082-.054Zm-.11.321c.028-.08.028.054 0 0Zm-5.915.428c0-.053 0 .08 0 0Zm7.715.482c.027 0 .027 0 .027-.027 0 0-.027 0-.027.027Zm-2.072.16c0 .027 0 .027-.027.027v.027h.054v-.053h-.027Zm-5.534.322c-.027 0 0 .026 0 0Zm.136.508c-.027 0 0-.027 0 0Zm1.09 2.274c-.026.054.083.08.055.027-.027 0-.027-.027-.054-.027Zm1.337.428c-.082 0 0 .08 0 0Zm-.082.027c.027 0 .027.027 0 0Zm-.055.027c0 .027.028.027 0 .027v-.027Zm-.381.027c-.028 0 0 .026 0 0Zm.327 0c-.027 0-.027 0-.027.026.027 0 .054 0 .081-.026h-.054Zm.79.16c.028 0 .028.027.028 0 0-.026-.028-.026-.028 0Zm-.027.054c.027 0 .027.027 0 0Zm.055.027c-.028 0 0 .026 0 0Z" fill="#fff"/><path d="M38.424 11.548c.027 0 .027 0 .027-.027h-.081c-.273-.375-.682-.616-1.145-.803-.055.054-.164.054-.218.08-.164-.08-.273-.08-.436-.16-.055 0-.082.027-.164.027-.11.08-.245.107-.409.134-.163.107-.273.267-.436.374-.3.696-.518 1.472-.845 2.167-.082.348-.164.696-.355 1.044v.107c-.108 0-.081.107-.163.187.109.134-.055.214-.11.268 0 .026.028.026.055.026 0-.026.055-.08.055-.053 0 .027-.027.053-.055.053.055.054-.027.027-.027.08.082.161-.19.161-.218.242.082.026.027.026.055.08.027 0 .027-.027.081 0 0-.027 0-.027.028-.027 0-.027 0-.053.027-.053 0 .026 0 .053-.027.053l-.028.027v.053c-.027 0-.054-.027-.081-.053h-.055v.08-.027c-.082 0-.027.08-.082.054 0-.027.082-.08 0-.08-.054.026-.109.16-.027.16-.027.027-.027.054-.082 0-.027.027-.027.08-.054.107.027.027.054-.027.054 0-.081.054-.109.187-.19.268.054.026.081-.054.081 0 .028.053-.027.053-.054.08-.028 0-.028-.027-.028-.054h-.027c-.027.054-.054.108-.109.134.11.027-.082.027-.054.08v.027c0 .027.027.027.027.027.027-.027.027-.053.054-.053 0 .053.082.026.055.107-.027.053-.027.107-.136.107.054.133-.028.267-.137.347 0 .054.028.054 0 .107-.136.107-.109.428-.381.428 0-.053.082-.08 0-.08-.055.054-.082.134-.11.214.055 0 .055.054.11.054 0-.08.027-.16.082-.16 0 0 .027 0 .027.026-.055.053-.055.187-.136.214.054.027.081.027.109 0 .027-.053.027-.134.054-.16.054.026 0 .133-.054.16 0 .08-.028.16-.11.16.028-.026.055-.053.055-.106-.082 0-.082.107-.136.187.054-.027.054.027.054.053 0 .08-.082.107-.109.16-.027 0-.027-.026-.054-.026-.028.134-.055.268-.218.321.027-.08-.082-.16.027-.214-.055.027-.055-.027-.082-.027 0 .08.027.215-.054.241-.028 0 0-.053-.028-.053-.027.053-.027.134-.081.187.108.08-.082.187-.028.268-.109.026-.082.133-.109.187-.054 0-.082 0-.082.027.028.053 0 .133-.027.16-.027.027-.054.027-.054-.027-.082.08-.137.134-.055.16-.027 0 0 .081-.054.081 0-.027-.055-.027-.055 0 .027 0 .027.027.055.027-.164.053-.164.294-.273.428 0 .054.055.027.055.08-.028.054-.028.134-.11.134 0-.08.082-.134.028-.187-.027.053-.027.134-.055.214.055 0 .055.027.055.08-.027 0 0 .027-.027.027-.028 0-.055-.027-.082-.027.027.027-.055.08 0 .107 0-.027.027-.053.054-.053 0 .08.028.107.055.16a.791.791 0 0 1-.11.268c-.026 0-.026-.054-.081-.054 0 .08-.027.134-.027.188.027 0 .054 0 .054.026-.054 0-.082.054-.136.027-.027.053.082.08 0 .134.082.134-.136.401-.218.535 0-.027-.027-.054-.027-.08-.082 0 .027.24-.11.16.055.134-.027.134-.027.241-.027.08.055 0 0 0h-.027c-.082.053-.027.24-.136.268.027.053-.027.16-.11.187v-.054c-.108.08-.054.241-.163.375.027-.027 0-.054 0-.054-.054.188-.027.348-.163.455.027 0 .027.027 0 0-.191.268-.191.589-.382.91 0 .053.027.027.027.08-.136.214-.327.509-.3.856-.19.322-.3.723-.572 1.07.027 0 .027-.026.027-.053-.054.027-.109.08-.082.16.082.027-.027-.08.055-.08.027.027.054.027.054.054-.081.053-.081.187-.19.24 0-.053.054-.053.054-.133-.082.027-.054.107-.109.16.027.08.082-.053.082 0 0 .027.027.027.027.054-.136.08-.109.294-.3.321 0 .134-.109.375-.19.562-.055.08-.137.214-.191.214-.028.134-.11.348-.246.401-.081.107-.109.268-.245.322a.907.907 0 0 1-.382.642c0-.268-.081-.75 0-1.07-.027-1.098.082-1.9.246-3.078.027-.053-.028-.053 0-.107.109-.722.272-1.578.354-2.3.055-.188.11-.295.11-.509.08-.187.108-.348.108-.535.11-.375.191-.83.245-1.177.028 0 0-.054.055-.054.027-.348.109-.642.164-.936.027-.16.136-.375.163-.562.027-.16 0-.375.082-.482v-.107c.082-.053.082-.16.109-.267 0-.429.136-.59.19-.937.192-.348.137-.75.355-1.017v-.16c.164-.295.409-.482.654-.67.028-.08.11-.133.137-.213-.137-.428-.546-.562-.9-.75-.054 0-.082.027-.109.054-.3 0-.518-.214-.763-.24-.3-.054-.545.106-.845.133-.327.134-.355.508-.49.803-.165.883-.464 1.632-.573 2.568-.137.295-.164.59-.218.99-.355 1.633-.71 3.506-.927 5.271-.137.776-.218 1.766-.273 2.596-.027.214-.082.401-.027.588-.027 0-.027 0-.027.027.054.107 0 .348.081.455-.109.134-.027.321.055.375 0 .16-.027.267.027.4-.027.054-.082.108-.109.162.027.053.055.08.055.107-.028.053-.082.133-.055.133 0-.026.027 0 .027.027-.027 0-.027 0-.027.027.082.027.055.16.082.267-.218.188.109.562.027.776.027.027.055-.053.082 0-.027.027-.055.027-.055.054.028.08.164.107.137.214 0 .053.081-.054.054.027.055 0 .082.08 0 .053.082.214.273.294.327.535.218.16.464.294.627.482v.027c.682.267 1.227 0 1.745-.188.054-.053.054-.08.054-.107.191-.08.328-.214.464-.348.272-.133.409-.428.654-.615.11-.24.245-.348.327-.615.191-.321.327-.723.518-1.044.027-.027 0-.053 0-.08.11-.134.245-.375.273-.642h.054c.055-.241.191-.428.245-.589v-.08c.11-.08.082-.214.164-.295-.082-.053.055-.107 0-.16.164-.107.3-.535.3-.75.082 0 .055-.08.109-.106-.055 0-.055-.027-.055-.054.028.027.028 0 .055 0 0-.187.245-.428.218-.669.055-.026.11-.133.082-.214.109-.134.109-.348.245-.508-.027 0-.027-.027-.054-.054.109 0 .081-.133.136-.187.054.107-.027.214-.055.294.028.027.055-.026.055.027-.055.054-.027.107-.082.188.027 0 .055 0 .055.026-.082.054-.11.16-.191.214.027.054.054 0 .082.027-.082.16-.055.428-.164.615.027 0 .055-.026.055 0-.082.08.027.402-.191.482.054 0 0 .027 0 .054.027 0 .082 0 .082.026.027.054-.055.027-.055.054.027 0 .055.027.055.053-.055 0-.137.054-.164.134.027 0 .082-.027.082.027-.11-.027-.082 0-.11.053.055 0 .164-.053.164-.026-.027.053-.027.133-.109.107-.027.08.082-.027.082.026 0 .08-.055.134 0 .188-.082-.027-.055.08-.136.08 0 .053.027.053.027.08-.027 0-.082 0-.109.027.027 0 .082 0 .082.027-.027.053-.027.187-.055.32.028-.026.028-.08.082-.106v.134c-.082 0-.109.053-.136.107.082.026-.137.16-.055.24 0-.026.027-.053.027-.026 0 .053-.027.053-.027.08.055-.053.11-.134.245-.16-.054.026 0 .133-.054.133-.027 0-.082.08-.054 0-.082.027-.055.188-.055.294l-.082.08c0 .027.027.081 0 .135 0 .053-.082.107-.082.16 0 .027.028.054.028.08-.055.08-.164.107-.164.188.027.053.082-.08.136 0-.027.053-.109.16 0 .187.028-.053.028-.134.11-.134 0 .054-.028.08-.028.134-.109.027-.163.107-.19.214.054 0 .081-.053.108 0-.027.053 0 .053.028.08-.137.054-.11.188-.218.214.027.188-.082.188-.137.295.055.026.028-.054.082-.027.027.107-.054.107-.082.16.028.027.055-.026.055 0-.027.08-.055.134-.11.161-.108-.027.083-.107-.027-.107-.027.053-.054.187.028.214 0 .08-.11.053-.11.107.137-.053.192-.134.328-.187-.055.32-.327.32-.327.669.081-.027.109-.107.19-.134-.027.267-.081.481-.245.695.164-.026.218-.026.355-.08 0-.08.027-.107-.028-.16.055.026.055-.027.082-.054-.027 0-.082.027-.082 0 .055-.027.028-.134.11-.134-.028.08-.028.107.027.134-.028.054-.028.134-.028.188-.027-.027 0 .053-.054.053-.027.535-.19.963-.245 1.498-.028.054-.082.107-.082.188-.027.08 0 .16 0 .24-.055.295-.164.616-.191.91-.027.188-.082.375-.11.535 0 .027.028.054.028.08-.054.348-.19.723-.218 1.044 0 .24-.109.508-.136.75-.055.267-.055.534-.136.775-.028-.027-.055-.027-.11-.027.11-.053.191-.347.082-.455.027 0 .027-.053.027-.08.028.027.028 0 .055 0 .054-.294.164-.722.082-.963.054.027.082 0 .054-.027-.109.027 0-.107-.054-.107-.082.188-.027.375-.027.642-.028.027-.055.054-.11.054 0 .24-.109.401-.027.615-.082 0-.027.16-.163.134.027-.107-.028-.053-.055-.08.027-.027.027-.08.055-.107-.137-.16.109-.455 0-.642.054-.054.054-.08 0-.134h.081c-.027-.107-.054-.187.055-.214-.027-.08-.027-.107 0-.16-.273.347-.109.829-.273 1.123.055.107.028.16.082.24-.027 0-.082.028-.082.054a.665.665 0 0 1-.027.509c-.054 0-.054-.054-.109-.08.027.08 0 .08 0 .16.055 0 .055-.027.082.027-.027.026-.055.053-.11.053a.763.763 0 0 1-.244.562c.027.054.136.027.163 0-.027-.08.027-.107.082-.187.027 0 .027.027.054.053-.027.08-.081.107-.027.16-.082.054-.19.188-.136.349-.082.026-.082.134-.055.187-.163.107-.109.401-.218.562.082.267-.109.508-.082.803-.027 0-.054 0-.054.026.027.027.082-.053.082.027-.028.16-.137.294-.082.428 0 .08-.11.134-.082.188 0-.054.055-.027.082 0-.027.053-.136.026-.11.106 0 .054.055-.026.055.027.028.08-.027.08-.054.107-.027.054.054.027.054.08-.109.108-.027.188-.081.295.027 0 .027.027.027.053 0 .215-.027.455-.082.643 0 .026-.027.026-.054.026-.028.107.027.214-.082.348-.055 0 0-.134-.055-.107v.375c-.027.026-.163.053-.109.107.055-.054.11-.107.164-.107 0 .053-.027.08-.055.134 0 .026.055 0 .055.026-.027.107-.137.188-.137.348.055.027 0-.08.055-.053 0 .187.027.267.055.428-.028 0-.055-.027-.082-.027.027.134.19 0 .218.16-.082.027-.027-.08-.11-.053.028.08.028.08-.026.16.054.08.081.134.081.215.11.053.246.133.327.133 0 .107.164.054.164.16-.027 0-.054 0-.054.028.136-.054.3-.027.381-.08-.054-.027-.109-.08-.109-.161.055-.054.055.027.136-.027-.027.027-.027.08.028.08.027-.053 0-.053 0-.133.109-.027.19-.08.3-.134.027.026-.028.134.054.107-.027-.08-.082-.241.055-.241a.407.407 0 0 0 .136.24.351.351 0 0 0-.027-.24c-.055.027-.11.027-.137-.027.055 0 .136.027.136-.027-.081-.026.028-.107.082-.133-.027 0-.054-.027-.054-.08.109.026.163-.108.245-.027-.027.053-.082.026-.109.107.082.026.136-.107.164 0 .054-.027.081-.054.136-.054v-.053c.082-.027.109-.08.136 0 0-.16.11-.321.055-.482.081.027.027-.053.081-.053-.027-.188-.081-.295.028-.402-.027-.642.136-1.204.136-1.873.055-.187.082-.348.082-.588.027-.134.136-.214.082-.322h.054c.027-.053 0-.107 0-.16.082-.027.055-.214 0-.294l-.054.107c-.028 0-.028-.054-.082-.054-.027.08-.082.107-.136.107-.028-.026 0-.053 0-.107h.054c-.054-.267.136-.455.245-.615-.054 0-.081 0-.109-.027.055 0 .028-.053.082-.053h.055c-.055-.054 0-.08.054-.134-.054-.054-.136.107-.163.053.027-.134.081-.08.109-.187-.028-.054.027-.027.054-.054.027-.026.027-.107 0-.187-.027 0-.054.08-.082 0-.027-.027.028-.08.082-.08 0 .027 0 .053.027.053.082-.294.11-.561.11-.775-.055.026-.028.133-.137.133 0-.187.082-.267.191-.32-.027 0-.027-.028-.027-.054-.137 0-.11.133-.191.187-.055-.16.109-.24.164-.348-.082-.053.054-.16 0-.294 0-.027.081 0 .054-.054-.054-.026-.027.08-.109.054 0 .08-.027.107-.082.134 0-.054.055-.054.027-.134-.136.053 0 .214-.136.267.082-.294.055-.481.164-.722.082 0 .082-.054.163-.027.137-.24.273-.428.164-.669-.027.054-.027.054-.082.027-.027.08-.082.134-.109.214-.027-.053-.054-.053-.027-.107-.137.027 0 .107-.082.16-.082-.24.163-.454.409-.508.054-.16.082-.267.109-.428-.027 0 0-.053-.055-.053 0 .026.028.026.028.053-.055 0-.082 0-.11.027.055.107-.027.24-.136.267.028.161-.109.188-.19.268-.082-.053-.164.027-.164.107.027.027.055-.053.082 0-.191.24-.273.562-.436.83-.028-.08-.028-.161.027-.215-.055 0-.027-.053-.055-.053a.37.37 0 0 0 .082-.24c.11-.054.218-.108.218-.295a.36.36 0 0 1 .191-.214c.109-.134.136-.402.19-.562-.026-.16.055-.214 0-.294.055-.054.028-.188.083-.241v-.027h-.028c.055-.08.11-.24.055-.294.109-.054.136-.214.245-.16a1.49 1.49 0 0 0-.163.213s.054 0 .054.054c-.109.026-.109.133-.163.187.109-.053.245-.134.272-.214.027.027.055.027.082.027.027-.241.136-.402-.055-.509 0-.133.082-.187.055-.294.082.027 0 .16.054.187 0-.053.028-.026.055 0 .109-.187.027-.588.19-.695.028-.214-.026-.348.055-.509-.081-.027.055-.053-.027-.107.19-.053.027-.428.164-.428 0-.24.163-.508.027-.749-.082.107 0 .24-.136.348-.028-.268.109-.348.136-.67.082.028.082-.026.136-.026.218-.374.136-.856.3-1.23 0 .026.027.053.054.053.055-.187.11-.401.028-.589.082 0 .082-.053.109-.107-.027 0-.055 0-.055-.027.082.027.028-.08.082-.107-.027-.026-.054.054-.082 0 .028-.08.164-.133.11-.214 0 .054-.055.08-.082.134 0-.08 0-.107.027-.134-.027-.026-.055.054-.055 0 .055-.053.137-.08.11-.187h-.055s0 .027-.027 0c0 .054-.028.08-.055.054.055.16-.109.16-.027.267 0 .054-.082.027-.11.08-.026.054.028.054.028.107-.054-.026-.136 0-.082.054 0-.053.055 0 .082 0 .027-.053.054-.134.11-.08-.11.053-.083.267-.219.294.082.08-.027.107.055.16-.028 0-.028.027-.028.054-.027 0-.027-.027-.081 0 .027.08-.028.107-.082.134-.028-.054-.082-.08-.137-.134.164-.16.137-.401.246-.589.027-.026 0-.026 0-.08.109-.027.245-.134.19-.267.028-.054.082-.027.11-.054h.027c.027-.053.082-.08.109-.134-.027.027-.027 0-.055-.026.028-.027.082 0 .082-.054 0-.267.164-.535.164-.856h.054c0-.295.191-.455.11-.723.054-.187.136-.32.108-.508.028-.027.082-.027.11-.053.054-.054-.055-.054 0-.134-.082-.188.081-.321.136-.509-.11-.374.3-.615.19-.936.028-.027.055-.027.082-.054 0-.107-.027-.107-.082-.187.137-.267.11-.535.191-.83h.082c0-.026-.027-.16 0-.213 0-.054.082-.054.027-.16.11 0 .11-.081.082-.161.055-.161.11-.322.136-.482 0-.027.028-.027.055-.027-.027-.107.027-.187.082-.24-.055 0-.11 0-.137-.027.082-.08 0-.134.028-.188h.081a.37.37 0 0 1 .082-.24c-.082 0 0-.054-.054-.054.054 0 .054-.053.109-.08.054-.375.3-.696.327-1.15.027 0 .027-.028.054-.028 0-.214.082-.267.055-.454.082-.08.109-.241.163-.348 0-.027 0-.08-.027-.107.164-.214.273-.455.3-.75.054-.026.109-.106.054-.187.055 0 .082 0 .11-.026.136-.429.218-.803.381-1.258h.055c0-.08.027-.134.054-.16.028-.268.218-.348.245-.643.055 0 .028-.053.082-.053.164-.616.464-1.124.79-1.632-.026-.134.11-.214.137-.375.027-.027.082-.08.136-.08.082-.268.3-.482.328-.776a.408.408 0 0 0 .19-.294c.273-.107.191-.428.082-.67Zm-4.143 3.13c-.055 0-.027-.08.027-.053 0 .026-.027.026-.027.053Zm-.627 1.07v.054c.054.027.054-.08.027-.054h-.027Zm-.573 1.472c0-.027.028-.027 0 0 0 .027-.027.053-.054.027v-.027h.054Zm-.163.722c0 .054-.082.027-.055-.026.028 0 .028.026.055.026Zm-.055.107c-.054.027-.081 0-.054-.053 0 .027.054.027.054.053Zm-.218 0c0-.026.027 0 0 0Zm-.136.723c0-.027.027 0 .027-.027.027 0 .027.027.027.054h-.054v-.027Zm.49.32c0-.026.055-.026 0 0-.027 0 .028.028 0 0Zm-.545 1.553c.11-.16.137-.402.3-.535-.082.401-.19.722-.272 1.07-.11.053-.137.16-.11.268-.054 0-.054 0-.081.026 0 .214-.218.375-.191.696-.109 0-.027-.16-.109-.16.082-.429.273-.696.382-1.044 0-.027-.028-.027-.055-.054.027-.107.082-.16.082-.294.027 0 .027.027.027.027s.027-.027.027 0Zm-.136.401c0-.08 0 .054 0 0Zm-1.227.187c.028-.053.028.08 0 0Zm-.163.295c-.082-.027.027-.054 0-.107.109 0 0 .053 0 .107Zm3.298 0V21.5h.055v.053c-.027-.026-.027 0-.027 0h-.028v-.026Zm-3.38.24c-.055-.026-.027-.107.027-.107 0 .054-.027.08-.027.107Zm0 .054c.027-.027.027-.053.055-.053.027.053 0 .053-.055.053Zm-.055.08c-.081-.026 0-.08 0-.107.082 0-.027.054 0 .107Zm.846.776c.081-.08.109-.16.163-.294.027.08.055.348-.082.375 0 .133.028.16.028.267-.028 0-.055 0-.082.027 0 .08-.027.24-.082.294-.055-.134.082-.267.082-.428l-.055-.053c.028-.08.082-.08.028-.188Zm.408.562c.028-.134.055-.267.082-.374 0 .133.027.294-.082.374Zm-1.826-.321c.027-.08.027.054 0 0Zm3.87.187c.028-.026.028-.08.055-.053.028.027 0 .053-.054.053Zm-2.098.241c0-.053.054-.053.054-.107.028 0 0 .107-.054.107Zm1.717.856c.028-.053.082-.08.137-.133.054.053-.055.08-.028.133h-.109Zm0 .054s.028-.027.055-.027v.054c-.027 0-.082.026-.055-.027Zm-.054.374c0-.107.136-.107.163-.214.028.08-.109.188-.163.214Zm-.218.027s.027-.027.027-.053c.082.026 0 .107-.027.053Zm-.028.268c0-.08.055-.107.11-.08-.028.053-.028.08-.11.08Zm.164.267c-.027-.026 0-.107.082-.08-.028.054-.055.054-.082.08Zm-.055.134c-.027-.053.055-.027.055-.08.027.027.054.027.054.053-.027.027-.081.027-.108.027Zm-.19.107v-.027h.054v.027h-.054Zm-1.772.054c-.027 0 0 .026 0 0Zm1.826.535c-.218 0-.163.214-.354.214 0 0 0-.027-.028-.027.055-.107.137-.16.137-.294.082 0 .027.08.054.107h.055c0-.027.027-.134 0-.16 0-.054.054-.054.082-.081 0-.134.109-.107.081-.24.11-.028.11.053.11.133-.11.027-.11.134-.191.187-.055.054.054.107-.055.107.055.08.082-.027.136 0 0 .027-.027.027-.027.054.027 0 .027.026.027.053-.027 0-.027-.027-.027-.053Zm-.218-.16c0-.027.027 0 0 0Zm.11.427c0-.08-.028-.187.108-.187 0 .08-.027.16-.109.187Zm-.274-.026c.028-.08.028.08 0 0Zm.191.08c.028 0 .028 0 .028-.027h.054v.027c-.027 0-.027.027-.027.027h-.055v-.027Zm.028.134v-.054h.054v.054h-.054Zm-.137.053c.055.027.028-.053.055-.053.027.053.027.16-.055.187v-.134Zm-1.717.214v-.027h.055v.027h-.055Zm1.635.16c.137 0 .055-.16.191-.16 0 .08.028.134-.054.188.109.16-.082.24-.082.428-.055 0-.055.026-.109.053.027.08-.027.107-.054.187-.082 0 .027-.053-.028-.053 0-.054.082-.054.055-.134-.082-.027-.027.054-.11.027.028-.107.164-.16.083-.268.108-.026.108-.187.108-.267Zm-1.717.696c.027-.026 0-.08.082-.053-.027.027-.027.08-.082.053Zm0 .188c-.027-.027-.027-.08 0-.134h.055c0 .08-.055.08-.055.134Zm-5.915.374c-.055 0-.082-.134-.055-.187.082 0 .028.187.055.187Zm-.11-.16c-.026 0 0 .026 0 0Zm7.688.267c-.027.107 0-.08 0 0Zm-1.8.16c0-.026.028-.026.055-.026 0 .027-.027.027-.054.027 0 .027-.027.027 0 0Zm1.418.081v-.027h.055v.027h-.055Zm0 .348c0-.08.055-.134.055-.214.082.027.027.187-.055.214Zm.137.187c.027.027.027.054 0 .08-.055-.026-.055-.026-.028-.08-.054-.026-.027.054-.081.054.027-.107.163-.16.109-.268.054-.053.109-.08.136-.16.055.026 0 .214-.082.24-.027.027.082-.026.055.054h-.055c.028.027 0 .027 0 .08H32.7Zm-.246.482a.606.606 0 0 0 .164-.321c.109.026 0 .107.054.16-.081.027-.054.054-.054.134-.055.027-.082.054-.164.027Zm-.027-.107v-.054h.027v.054h-.027Zm-.082.134c.028-.027.028-.08.055-.134.054.053 0 .134-.055.134Zm-.79-.08c0-.027.027 0 0 0Zm-.082.187a1.29 1.29 0 0 0 .082-.188c.054 0 0 .134 0 .188h-.082Zm1.145 0c-.027-.027 0-.134.054-.107 0 .053-.027.053-.054.107Zm-.218-.027c.027-.027.082-.027.109-.027 0 .054-.11.214-.218.214-.11.08-.11.241-.245.294.054-.053.054-.08 0-.16.081-.027.054-.107.136-.107-.082-.134.163-.268.218-.214Zm-.981.24c-.055 0-.055.054-.137.027 0-.026.055-.026.082-.08-.027-.053-.055.027-.082 0 .055-.08.11-.134.218-.134 0 .027 0 .054.055.027-.055.054-.055.107-.055.24h-.081c0 .054.081 0 .054.081-.054.08-.273.241-.109.321 0 .054-.055-.026-.082 0 0 .027 0 .027.055.027a.428.428 0 0 0-.11.268c0 .053.055-.027.082.026.028.241-.054.241-.027.509-.027.026-.054.026-.109.026.027.08.055.107.055.161 0 .053-.028.08-.055.107 0 .16-.082.321-.082.482-.218 0-.109.24-.19.401 0 .053.027-.027.081 0-.027.053-.081.16 0 .134-.081.107.055.214-.054.294h.136c.027.08-.109.027-.136.08-.027 0-.027-.026-.027-.053 0 0-.028.027-.028-.027-.027.027-.109.214-.027.187-.027-.08.027-.08.082-.08.027.054-.055.054-.082.08v.027c.055-.053.082.027.055.08.027-.053.19-.08.136-.133.027-.054.109-.027.109-.054.109.187 0 .428-.11.535-.108-.053.055-.133 0-.214-.135.107-.026.321-.19.375.027.08-.027.107.027.134-.082.08-.027.24-.163.267.027-.08.109-.294.081-.401-.054 0-.027.08-.108.053 0 .027.027.027.027.08 0-.026.054 0 0 0 0 .027.027.027 0 0-.055.054-.082.161-.11.241-.027.027 0-.133-.027-.187h.055c0-.053 0-.08-.027-.134.109 0 0-.24.054-.294 0-.027-.027 0-.054 0 .027-.053.054-.027.109-.08-.055-.134 0-.241.054-.321 0-.054-.081-.027-.054-.107.081 0 0-.054.054-.134-.027.027-.081 0-.054.053-.055 0 0-.08-.027-.107.054-.026.081-.053.108-.053 0-.08-.027 0-.081 0 .054-.134.163-.214.19-.428-.081 0-.027.08-.108.053.054-.187.218-.24.109-.455.163-.107.218-.24.272-.454-.054 0-.054.053-.054.106-.055-.026-.028.054-.082.054.027-.054-.027-.16.027-.214-.054-.027-.027-.053-.027-.107-.082 0-.027.107-.136.107.027-.053.081-.107.081-.16.055 0 .11-.027.082.026.11-.107 0-.32.11-.401-.028-.027-.055-.027-.083-.027.082-.134.191-.321.137-.535.054 0 .054-.054.109-.054 0-.026-.11 0-.11-.026 0-.054.055-.08.055-.107.027 0 .027.026 0 .053.082-.027.082-.107.137-.16Zm1.144-.026c-.054-.054-.027-.16.055-.16.054.08-.027.133-.055.16Zm-.6.08c-.054 0-.054-.134.028-.107 0 .054-.055.054-.027.107Zm.328 0c0-.053.054.027.082-.053.027.026 0 .133-.055.107.027-.027 0-.054-.027-.054Zm-.055.16c.028 0 .028-.026.028-.08h.081c-.027.054-.027.134-.109.08.028.027-.027.027 0 0Zm0 .108c.055 0 .055-.027.082-.027 0 .08.027.053 0 .107h-.082c0 .08.082.027.082.08 0 .027-.027.027 0 .054-.054-.054-.054-.027-.082.026-.163-.053.082-.16 0-.24Zm-1.063.08c-.054-.027.027-.027 0-.08.055 0 .055.107 0 .08Zm.79-.027c-.054.08-.081-.053 0-.053 0 .027-.027.053 0 .053Zm-5.751.027c-.055.053.055-.053 0 0Zm5.915.268c0-.054.055-.054.055-.08.054 0 0 .08-.055.08Zm.191 0c-.054-.027-.054-.054-.054-.08.054-.027.081.053.054.08Zm-.327.107c-.055-.027.054-.08.027-.134.027 0 .055.027.082.027 0 .08-.109.053-.109.107Zm-.027 1.016c-.028 0-.055.054-.082 0 .082-.107.109-.187.136-.374.11-.027.11-.134.055-.241.054 0 .054-.08.136-.08-.027-.107.082-.214.164-.268 0-.107-.028-.134.054-.16 0 .053-.054.08 0 .107 0 .026-.027.08-.082.08.055.107-.027.214-.054.294.082.054.027-.027.082-.027-.055.134-.164.322-.191.428-.082.08-.191.108-.218.241.081 0 .027-.133.163-.107-.027.054.027.054 0 .107a1.284 1.284 0 0 0-.082.188h.055c-.027.133-.082.08-.164.107.11.133-.054.24 0 .374-.081.027-.109.08-.136.134-.082-.107 0-.134-.027-.267a.359.359 0 0 0-.055.32c0 .054-.054.054-.081.08 0 .028.027.028.027.054 0 .027.027 0 0 0-.11.027-.11.08-.164.134-.054-.08.055-.16.082-.187-.082-.054-.163.16-.136.267-.137.08-.027.321-.164.402.055-.214.027-.375.11-.589 0-.053-.055-.027-.055-.08.082-.027.082-.107.054-.134.028-.053.11-.08.164-.053.163-.161.218-.536.409-.75Zm.19-.83c0-.08.082-.08.055-.186.027 0 .027.026.054.026 0 .08-.027.134-.108.16Zm-.327-.053c-.054 0-.081-.026-.054-.08.054 0 .054.054.054.08Zm-.218.509c.055-.134.11-.241.164-.402.027.188.027.295-.027.455-.028-.027-.082-.027-.137-.053Zm.382-.08c.027.026.027 0 .027 0 .027 0 .027.08-.027.053v-.053Zm.245.213c0-.053.028-.08.082-.08-.054.027 0 .107-.082.08Zm-.518.134c0-.053.055-.026.028-.107h.054c.027.08-.027.16-.082.107Zm-.736.027c.028-.027.028-.107.082-.107-.027.027 0 .107-.082.107Zm1.145 0c0-.08.11-.08.136-.053 0 .053 0 .08-.054.107-.055 0-.055-.054-.082-.054Zm-1.09.054c0 .026-.027 0-.055.026 0-.026.028-.026.055-.026Zm1.09.08c.027-.027.055-.027.055-.054.027 0 0 .054 0 .054h-.055Zm-.381 0c.027-.027.081 0 .136 0-.082.027-.055.16-.136.187 0-.053.054-.107 0-.187Zm-.273.455c.027-.107.027-.241.082-.375.082.08.054.375-.082.375Zm-.19-.295v-.026c.054.026.054.026.026.053h-.027v-.027Zm-.3.16c0-.053.108.028.081-.026.027.054 0 .107.082.134-.027.08-.055.16-.136.187 0-.053.027-.08.027-.134-.027 0-.027 0-.027.027-.082-.053.081-.134-.028-.187Zm.217.268c.028-.08.028.08 0 0Zm.273.027c0-.027.027-.027 0 0-.027 0 0 .027 0 0Zm.3.509c-.055-.027-.027-.027-.027-.08.054 0 .054.053.027.08Zm.082-.054c.027-.08.027.054 0 0Zm.081 0c.082 0-.109.134 0 .027v-.027Zm-.436.08c0-.026.027-.026.082-.026 0 0-.027.026-.027.053h-.027c0-.027 0-.027-.028-.027Zm.246.16c-.082-.053.027-.16.109-.16-.028.08-.082.08-.11.16Zm.218 0V32.9h.054c0 .08 0 .134-.054.134Zm-1.363.028c0-.054.054-.054.082-.027 0 .027-.055.027-.082.027Zm.927.08c-.028 0-.028-.027-.028-.054.027 0 .055 0 .055.027-.027 0-.027 0-.027.027Zm-.055.08v-.053c.027 0 .027.026.027.053h-.027Zm-.245.268v-.027c.027 0 .054.027.054.053-.027 0-.027-.026-.054-.026Zm-.082.776c-.027-.295.082-.455.082-.696h.054c-.054.214-.054.455-.136.696Zm.273-.535c0-.027 0-.054.027-.054v.054h-.027c0 .026 0 .026.027.026-.027.08.027.16-.027.268-.164-.027 0-.187-.028-.294h.028Zm-.518.133c-.028-.026.027-.026.054-.026 0 .026-.027.026-.054.026Zm-.246.241c0-.027 0-.08.055-.08.027.08-.027.08-.055.08.055.054-.082.027 0 0Zm.191-.027v-.053h.055v.053h-.055Zm-.327 0c.027 0 .055 0 .055-.026.027.053-.028.107-.028.187-.082-.027 0-.08-.027-.16Zm.354.054c.055-.08.055.053 0 0Zm-.027.107s0-.054.055-.054c0 .054-.028.054-.055.054Zm-.245.107c0-.08.027-.107.082-.134 0 .08-.028.107-.082.134Zm-.082-.054c.027-.053.027.08 0 0Zm-.055.75c-.027.16-.054.428-.136.615-.082 0 .055-.107-.054-.107.109-.053.109-.24.054-.375.11-.107.055-.24.11-.401 0 0 0-.027-.028-.027-.027-.053.027-.053.054-.08-.054-.053.028-.134-.054-.134.027-.053.082 0 .109-.133 0 .08-.027.187-.027.267.027.053.054-.027.109 0 0-.027-.027 0-.055 0 .273 0 .191-.294.355-.375a1.13 1.13 0 0 0-.055.322c-.19.106-.136.32-.273.454-.027 0-.027-.133 0-.133 0-.054-.109.026-.081-.054-.028 0-.028.054-.028.08.137-.026 0 0 0 .08.028.027.028 0 0 0Zm.9-.723c-.055.054.055-.053 0 0Zm-.845.027c.027-.054.027.08 0 0Zm.082.187c0-.026.027 0 0 0Zm.49.188c-.027.026-.027.026-.054 0h.054Zm.491.133c.027 0 .027-.026.027-.026h.028v.026l-.028.027h-.027v-.027Zm-.654.214c0-.053.027-.08.082-.08 0 .054-.028.08-.082.08Zm-.409 0c.027-.08.027.08 0 0Zm.927.08c-.027 0 0-.026-.027-.053.054 0 .054.027.054.054h-.027Zm.054.134v-.053h.055v.053H31.5Zm-.79.027c.027-.08.027.08 0 0Zm.6.107v-.053c.054 0 .054 0 .054.053h-.055Zm-.9.241c-.027-.027 0-.107.027-.16.055.08 0 .214 0 .4-.082 0-.082.081-.109.108.082.053-.027.053-.054.107.054 0 .054 0 .054-.027.055 0 .027.054.027.08-.081-.026-.081.027-.109.08.055 0 .055-.026.11-.026-.028.027 0 .027 0 .08-.028 0-.055-.027-.137-.027-.054-.053.055-.107 0-.133.082-.08.055-.295.055-.455.054-.027.054 0 .081.026.028-.026.028-.053.055-.053Zm.572-.053c0-.027.028 0 0 0Zm-.327 0c0 .026 0 .026-.027.026 0-.026.027-.026.027-.026Zm.164.08c.054-.027.082 0 .082-.027.054.107-.028.24-.137.268.027-.08.11-.134.055-.241Zm-.027.294c.027-.027.054-.027.054-.053.027.053.027.294-.082.294 0-.08.082-.16.027-.24Zm-1.036.294c-.028-.08 0-.133.027-.187.054 0 .054.027.082.027-.027.053-.055.134-.11.16Zm.954 0c.054 0 .054-.026.136 0 0 .08-.055.107-.055.188-.108-.027-.027-.107-.081-.188Zm-.954.08c.027-.026.054-.026.081-.053.028.054 0 .16-.081.16.054-.053 0-.053 0-.106Zm.49.108h.028c.054-.027-.055-.107 0-.134.109 0 .081.24-.028.214-.027-.027 0-.027 0-.08-.027 0-.027 0-.027-.027-.054.027-.027-.107.027-.08-.027 0-.027.026-.027.08.027 0 .027.027.027.027Zm-.409.08c.055-.054.055-.134.082-.187.055.053.027.187-.082.187Zm.328-.027v-.053h.054v.053h-.054Zm-.382.08c-.082 0-.027-.107 0-.053v.054Zm.927 0v-.026h.054v.027h-.054Zm.518.08c-.055.028-.082-.026-.082-.08.054 0 .109.027.082.08Zm-.191.563c0-.107.054-.348.136-.428.082.026.027.187-.054.16 0 .107 0 .214-.082.268Zm.19-.241c0-.08.082-.107.082-.188.028.054 0 .188-.081.188Zm-1.69.027c.082-.027.11-.108.137-.188.082 0-.027.107.027.16-.054 0-.054.081-.136.081.027-.053 0-.053-.027-.053Zm.491.535c.027-.054.027-.16.11-.107 0-.08.054-.16 0-.188.027-.026.108-.107.054-.16.027-.027.082-.08.136-.08a2.437 2.437 0 0 0-.082.829c-.136.134-.136.401-.218.508-.081-.026-.027-.107 0-.133 0-.027-.027-.054-.027-.08-.055 0 0 .106-.055.08 0-.16-.054-.375.137-.428-.027-.08.054-.215.054-.322-.082-.026-.027.08-.109.08 0 .027.027.054.055.027 0 .08-.027.134-.055.161-.027 0-.027-.027-.081-.027.027-.027.054-.08.081-.053.027-.054-.081-.08 0-.107Zm1.145-.402c0-.053.027-.08.082-.08 0 .054-.027.08-.082.08Zm-1.663.348c.028-.107.055-.134.055-.267.054 0 .054.026.082.026-.082.08 0 .16-.055.241h-.082Zm1.418.027c.082-.027.109-.134.136-.187.082 0 .055.053.027.133h-.054c.027 0 0 .054 0 .107-.11.054 0 .214-.11.295 0-.134.028-.241 0-.348Zm-1.445.08c.027-.026.027-.053.027-.08.055 0 .028.107-.027.08Zm1.418.535c-.055 0-.055-.133 0-.187.027 0 .027.054.054.054-.027.053-.027.107-.054.133Zm.19-.08c0-.027.055 0 0 0-.027 0 .028.027 0 0Zm-1.908.321c0-.053.055-.053.027-.107.028 0 .055.134-.027.107Zm.082-.053c0-.027.027-.027.055-.027 0 .027 0 .053-.055.027Zm1.608 0c0 .026 0 .026-.027.026 0 .027 0 .054-.027.054v-.054h.027l.027-.026Zm-.19.294c.027-.054.027-.134.108-.134.028.054-.027.134-.108.134Zm.245.16c0-.026.027-.026.082-.026 0 .026-.028.026-.082.026Zm-.327.241c-.027-.027-.027-.027 0-.053.027.026.027.053.054.053 0 .054-.054.107-.109.054 0-.027.055 0 .055-.054Zm.327.054c.027-.054.027.08 0 0Zm-.409.107c.027-.027.136-.027.136.027 0 .053-.054.053-.082.08 0 .027 0 .08.028.107a.325.325 0 0 1-.137.134c0-.134.11-.214.055-.348Zm-.763.508s-.028 0-.028.027c-.027-.027-.027-.08-.027-.134 0 .054.082 0 .082.054.054-.107.082-.214.136-.402.055.027.055-.026.11-.026-.055.08-.055.187-.137.24.027.054.055.08.055.134-.028.027-.055.08-.11.134-.027 0-.081.027-.081-.027Zm.708-.134h.055v.054h-.055v-.054Zm-1.008.215c.027-.08.054-.108.054-.161.028.027.028.053.055.08 0 .054 0 .107-.082.107 0 0 0-.026-.027-.026 0 .026 0 .026-.027.026v-.026h.027Zm-.027-.108c0-.026.027-.026.054-.026 0 .026-.027.026-.054.026Zm.98.054v-.08c.055 0 .055.026.083 0-.028.053-.028.107-.082.08Zm0 .294c-.08 0-.026-.107 0-.053v.053Zm.219.402c.082-.08-.027-.214.109-.322.082 0 .027.134.055.188h-.082c.027.027.027.08.054.107-.027.027-.109.053-.136.027Zm0 .16c-.027-.107.055-.107.109-.107 0 .054-.027.107-.109.107Zm.027.134c-.054 0 0-.08.055-.08 0 .053-.027.053-.055.08Zm-.327.053v-.053h.027v.053h-.027Zm-.054.134c0 .027-.028.027-.055.027 0-.027.027 0 .055-.027Zm.027.696s.027 0 .027-.027h.027c.028.027-.027.027-.054.027Zm-1.608 0c-.028 0 0 .027 0 0Zm-.028.214c-.054 0-.081-.054-.054-.08.054 0 .054.026.054.08Zm1.909.08s.027 0 .027-.027c.054.027 0 .08-.027.027Zm-.328.08v-.053h.055c0 .027-.027.027-.027.053h-.028Zm.028.08c-.055-.026 0-.08.054-.053 0 .027-.082 0-.054.054Zm.109.215c0 .026-.028.026-.055.026.027 0 .027 0 .055-.026Zm-.191.107c0-.027.027-.027.027-.08.027 0 .027.026.055.053 0 .027-.055.027-.082.027Zm.082.027c.027-.08.027.053 0 0Zm.19 0c.028-.08.028.053 0 0Zm0 .08c0 .027 0 .027-.027.027 0-.027.027-.027.027-.027Zm.055.16c0-.053.055-.053.082-.026-.027.026-.055.053-.082.026Zm-.627.16c.055-.026.055.028.109 0 0 .081-.109.054-.109 0Zm0 .108c.027 0 .027-.027.027-.027h.027v.054h-.054v-.027Zm-.245.08c-.082.027-.082-.026-.055-.053.027 0 .055.026.055.053Zm.109-.027c.027-.026.054-.026.081 0-.027.08-.054.08 0 .161-.109-.027-.054-.053-.163-.027.054-.053-.027-.053-.027-.107.027-.027.054-.053.109-.027Zm-.9.322c0-.027 0-.054-.027-.08.027-.054.109.053.109 0 .054 0 .054.053.054.08-.027 0-.027-.027-.027-.027-.054-.027-.054.027-.109.027Zm-.054.053v-.053h.081c-.027.08-.054 0-.081.053Zm.081 0v-.053h.055v.053h-.055Zm5.698-29.673c0-.08.109-.16.081-.214-.027.08-.109.134-.081.214Zm0 0c-.055.027.027.107 0 0Zm-.11.295c-.054 0 .028-.08 0 0Zm-.081-.027c0 .027 0 .027-.028.027v.027c.055.053.055-.054.028-.054Zm.081.027a.94.94 0 0 1-.108.24c.081-.026.136-.16.108-.24Zm-.163.107h-.027v.053c.054.027.054-.08.027-.053Zm-.027.107c0 .027 0 0 .027 0 0-.027-.027-.027-.027 0Zm-.137.214c-.136.107-.109.267-.19.401.081-.027.081.054.109.08 0-.214 0-.32.081-.481Zm.082 0v.053h.028v-.053h-.028Zm0 .107h.055-.055Zm-4.089.214c0 .027.028 0 0 0Zm4.007.027c0 .026-.027.053 0 .08.028-.027.055-.054 0-.08Zm-.054.267c-.027 0 0 .027 0 0Zm-.436.08c-.028 0 0 .027 0 0Zm.218.241c-.027-.107.027-.16-.027-.24 0 .026 0 .08-.055.053 0 .08.027.054 0 .107.082-.027 0 .107.082.08Zm-.218-.08c0-.053 0 .08 0 0Zm.054.107c-.081.107.11-.027 0-.027v.027Zm.164-.027c0 .054.082 0 0 0Zm-.355.241c-.027 0-.081.08-.054.107.027-.053.054-.053.054-.107Zm.055.107c0-.027.082-.08 0-.107v.107Zm-.164.027c0 .107.028-.08 0 0Zm.164-.027c-.082.054-.082.08-.082.134h.082c0-.08-.027-.054 0-.134Zm-.19.16c.026-.08.026.08 0 0Zm-.055.027c0-.026.027-.026 0 0Zm.136 0c0-.053.082.027 0 0Zm-.136 0c-.028 0-.028.054-.055.08.055 0 .055-.053.055-.08Zm.136 0c-.027.027 0 .027 0 0Zm.054.107v-.026.026Zm-.136.054c0 .027.027.027.027 0-.027 0-.027-.027-.027 0Zm-.054.054v.053h.027v-.053h-.027Zm0 .187c0-.027.027 0 0 0Zm-.218.026c-.028.107 0-.08 0 0Zm.218-.026c-.028.026 0 .026 0 0Zm-.11.24c0 .027-.027.027-.027.08.082.028.11-.08.028-.08Zm-.218.375c.028 0 0 .027 0 .054-.027-.027 0-.054 0-.054Zm-.19.107c.027.027.027.08.054.08.028-.026.028-.08-.054-.08Zm.136.08c.054 0 .027.08.054.054.055-.027-.027-.107-.054-.054Zm-.218.375c.027.027 0 .053 0 .053-.027 0 0-.026 0-.053Zm-.027.401v.027h.027v-.027H32.7Zm-.41.08c.028-.053.028.08 0 0Zm.11.08c0-.026.027 0 0 0Zm.109.054c-.055 0-.082 0-.082.054.055 0 .055-.054.082-.054Zm-.273.107s0 .027-.027.027v.027c.054.027.054-.054.027-.054Zm.137.027c0-.027.027 0 0 0Zm-.41.509c0 .026 0 .053.028.053 0-.027 0-.053-.027-.053Zm-.108.347c.027 0 .054-.053 0-.053v.053Zm-.491.964c-.027 0 0 .026 0 0Zm-.19.428c0-.027.026 0 0 0Zm.108 0c0 .026.027.026.027 0 0 0-.027-.027-.027 0Zm-.109.187c-.027 0-.027-.027-.027-.027 0-.027.109-.08.027-.107-.027.08-.136.214-.136.321.054-.053.054-.107.082-.133 0 .053.081 0 .081 0-.027 0-.027-.054-.027-.054Zm0 0c0-.027.027-.027 0 0Zm1.254.027c.027.027.027 0 .027 0h-.027Zm-1.281.214c-.082-.054-.055.08-.11.107.083-.027-.054.08.055.08 0-.107.028-.134.055-.187Zm-.136.187c0 .027 0 .08.054.054.027-.054-.027-.054-.054-.054Zm-.11.268c.028 0 .028 0 .055-.027v-.027h-.054v.054Zm-.272.481c-.027-.08.055 0 0 0Zm0 0c-.027 0 0 .027 0 0Zm-.055.054c0 .027 0 .053.028.08v-.027c0-.026 0-.053-.027-.053Zm.028.134c-.082 0-.027-.054 0 0Zm-.11.133h.028v-.08c-.027 0-.027.027-.027.08Zm1.39 1.766c.028 0 .055 0 .055-.027-.027.027-.054 0-.054.027Zm-.163.589c.028-.054.028.08 0 0Zm2.1.455c0-.027.027 0 0 0Zm-.164.669c.027 0 .054 0 .054-.027-.027 0-.054 0-.054.027Zm-4.689.16c-.027-.107.055-.027 0 0Zm2.508.027h.055c0 .027-.028 0-.055 0Zm0 .08c0-.026.027 0 0 0Zm1.854 0v-.026.026Zm-4.444.054c-.081.026 0 .107 0 0Zm4.253.133c.027-.053.027.08 0 0Zm-1.827.241c0-.026.028 0 0 0Zm.082.16c-.054 0 .028.081 0 0Zm-.19.242c.027 0 .027 0 .027-.027 0 .027-.028 0-.028.027Zm.218.16h.027V26.8c-.027 0-.027.027-.027.053Zm-.137.027c-.027.027.027.027 0 0Zm-.109.24c.027 0 .082.027.082-.026-.027.027-.11 0-.082.027Zm-6.024.295v.027c.027 0 .027.027.027.027 0-.027.027-.08-.027-.054Zm-.027.107h.027c0-.027 0-.053-.027-.08-.028.053 0 .053 0 .08Zm0 0c-.082 0 .027.054-.028.107.11.027.055-.08.028-.107Zm5.97.321c-.028 0-.082.054-.055.08.027-.053.082-.026.054-.08Zm-6.025.107c.027 0 .055 0 .055-.027-.028 0-.055 0-.055.027Zm7.715.134c0-.027.027-.027 0 0Zm0 0c-.028 0 0 .027 0 0Zm-7.606.134c-.027 0-.027-.027-.054-.027-.028.027 0 .08.027.107 0-.053.027-.053.027-.08Zm5.915 0c.028-.054.028.08 0 0Zm-.027.134c0-.054.082.026 0 0Zm0 0c-.027.026 0 .026 0 0Zm1.581.026c.027 0 .027 0 .055-.026-.028 0-.055.026-.055.026Zm-.027.027c.027 0 .027 0 .027-.027l-.027.027Zm0 0c-.027 0 .027.027 0 0Zm-1.745.268c0-.027.028 0 0 0Zm-.082.214c-.027.08.11 0 .055-.027l-.055.027Zm1.909.16v-.026.026Zm-1.8.214c-.081.054.082.054 0 0Zm-.19.027c-.055.027.027.08 0 0Zm-.027.134c0-.027.027-.027.027-.027 0 .027 0 0-.027.027Zm-.028.053v.054c.027.027.055-.08 0-.054Zm-5.152.08c-.081 0 0 .054 0 0Zm5.152.027c-.054 0-.082 0-.082.027.028 0 .082 0 .082-.027Zm1.745.054h-.027c.027.027.027 0 .027 0Zm-.055.08c0-.08.082 0 0 0Zm0 0c-.027 0 0 .027 0 0Zm-1.635.134c-.055.053.054-.054 0 0Zm1.853.027c.028.08.028.08 0 .16.082 0 .055-.107.055-.16h-.055Zm-1.58.428c-.055.027-.11.027-.137.08.027 0 0 .08.027.08 0 .027-.082.027-.082.054.055.027.055.107.11.134.054-.134 0-.215.081-.348Zm-.382.053c-.027 0 0 .027 0 0Zm.109.107c.027-.08.027.08 0 0Zm.19.214c-.081-.026-.163.027-.108.08.027-.053.109-.026.109-.08Zm-.217.054c0-.027.027 0 0 0Zm.054.08c.027-.08.027.08 0 0Zm-.027.08c-.082 0-.082-.053-.11-.08 0 .08-.054.08-.054.16.082 0 .137-.026.164-.08Zm0 0c0-.026.027-.026 0 0Zm.136.054c0 .027-.055.053 0 .053 0-.026.027-.026 0-.053Zm-.273.053c-.027.027-.054.08-.054.161.082 0 .055-.16.055-.16Zm.191.161c.055 0 .055-.054.055-.107-.082 0-.055.027-.055.107Zm0 0c-.081-.027 0 .053 0 0Zm-.054.16s.027 0 .027-.026c0 0-.027 0-.027.026Zm-.191.83c.027-.08.136-.08.136-.187-.027.026-.054 0-.054-.027.054 0 .136-.24.136-.401 0-.054.027-.134-.027-.188 0 .107-.055.16-.027.241-.11.054-.055.214-.11.375-.027.08-.163.133-.054.187Zm-.055-.562c-.027.054-.136.16-.027.187-.054-.08.11-.16.027-.187Zm.518.24c-.027 0 0-.026 0 0Zm0 0c.028 0 .028.028 0 0Zm0 .081c.028-.08.028.054 0 0Zm-.545.054c0 .053-.109-.027-.082.053h.11c0-.027 0-.053-.028-.053Zm-.109.16c.027.054-.054.107 0 .134.027-.027.082-.134 0-.134Zm.191.027v.053c.055 0 .055-.053.082-.053h-.082Zm.518 0c0 .027.054.027.054 0-.027.027-.027-.027-.054 0Zm-.518.134c-.027.08.082-.027 0 0Zm-.245.026c-.028.107.081 0 0 0Zm.218.027c-.028.027-.028.054.027.08 0-.053.027-.08-.027-.08Zm.436.08c-.027 0-.055 0-.055.054.028 0 .055-.027.055-.053Zm-.654.027c-.028.027-.028.08-.055.134.082 0 .082-.107.055-.134Zm.245.027c-.027.054-.082.08-.082.16.082 0 .164-.133.082-.16Zm1.063.027c.027.027 0 .027 0 .053-.027 0 0-.026 0-.053Zm-.709.134c.028-.08.028.08 0 0Zm1.2.053c.027-.08.027.08 0 0Zm-.082.027c-.027.107 0-.08 0 0Zm-1.554 0c-.027.027-.082.134-.027.187-.027-.08.136-.134.027-.187Zm-.218.08c-.027.054.082-.053 0 0Zm.682.027c.027 0 .027 0 .027-.027 0 0 0 .027-.027.027Zm-.71.027c0 .026-.054.026-.054.053.055.027.11-.053.055-.053Zm.246.053c0-.053.082 0 0 0Zm0 0c-.027 0 0 .027 0 0Zm-.163.027c.027-.08.027.08 0 0Zm-.137.027c.028-.08.028.08 0 0Zm.218-.027c.028.08 0 .107-.027.16.082 0 .055-.133.082-.16h-.055Zm-.081.08c-.028-.053-.11 0-.137.054 0 0 .137 0 .137-.054Zm.572 0v.027-.027Zm-.572.08c.027-.08.027.08 0 0Zm.054.054c.027 0 .027.027.055.027 0 0 0-.027.027 0v-.054c-.027 0-.055 0-.082.027Zm-.109.027v.026h.055v-.026h-.055Zm-.327.08h.055c0-.027-.028-.054-.055-.054v.054Zm1.145-.027c0-.027.027-.027 0 0Zm-.19 0v.054c.026 0 .026-.107 0-.054Zm-.464 0c-.028.107.081.027 0 0Zm-.491.027c-.055 0 .027.08 0 0Zm.436.107c.027-.027.055 0 .055-.027-.028 0-.055 0-.055.027Zm.055 0c-.055 0-.11.053-.055.08 0-.053.082 0 .055-.08Zm.354.053c0 .027 0 .027-.027.054.054.027.109-.027.109-.053h-.082Zm-.654.027v.027h.027v-.027h-.027Zm.654.107h.055v-.026c-.055 0-.055 0-.055.026Zm0 0c-.027.027 0 .027 0 0Zm1.172.107c-.054.054-.054.134-.054.188-.082.026-.273.133-.164.267 0-.027.027-.053.055-.053.027-.054-.055 0-.028-.08.055-.027.11-.08.218-.108-.027-.107 0-.133-.027-.214Zm-1.608.08c-.027 0-.11.054-.055.08 0-.053.082 0 .055-.08Zm1.608.188c-.054 0-.082 0-.082.053.028 0 .11 0 .082-.053Zm-1.962.08c.027.054-.028.107.027.107 0-.027.054-.027.054-.08-.027 0-.027-.027-.081-.027Zm1.935.107c0-.08.054 0 0 0Zm-1.69 0c0 .054-.027.054-.027.08.081 0 .054-.053.027-.08Zm-.245.294c-.028.054-.082.054-.055.134.055 0 .082-.107.055-.133Zm.19.027v.054c.055.026.055-.08 0-.054Zm-.027.16c0 .108.027-.08 0 0Zm1.636.054c-.028.107 0-.08 0 0Zm-1.827 0c-.054-.026-.082.08-.027.08.027-.026.027-.053.027-.08Zm.627.08c-.027-.026-.082.054-.027.054 0-.027.027-.027.027-.053Zm.055.054c-.055 0-.055.027-.11 0 0 .027 0 .054-.027.08.082 0 .11-.053.137-.08Zm.845.107c0-.027.027 0 0 0Zm-1.609.589c.028-.054.028.08 0 0Zm1.718 0c.027.053-.055.08.027.107.027-.027.027-.107-.027-.107Zm-.082.053c-.054-.053-.218.08-.082.08-.027-.08.082-.026.082-.08Zm-1.636.054c0-.027.028-.027 0 0Zm0 0c-.027 0-.054.08 0 .08-.027-.053.028-.027 0-.08Zm1.527.08v.027h.055v-.027h-.055Zm-1.527.107c0 .053-.081.027-.081.08h.081c-.027-.026.055-.08 0-.08Zm1.527 0c-.027.053-.027.08 0 .107 0-.053.055-.107 0-.107Zm-1.554.187c-.027-.08.055 0 0 0Zm0 0c-.027 0 0 .027 0 0Zm1.69.054c.027-.08.027.08 0 0Zm-.027.08c-.027.027-.027.054-.027.107.054.027.081-.107.027-.107Zm-1.172.321c0-.027.027 0 0 0Zm-.736.054c0 .08-.027.08-.055.107.082.027.082-.08.055-.107Zm-.082.294c-.027 0 0 .027 0 0Zm-.19.321c-.028-.08.081.027 0 0Zm0 0c-.028 0-.028.027 0 .027v-.027Zm0 .054c.054 0 .027-.027 0-.027v.027Zm0 0c-.028.026-.028 0-.055 0-.027.053-.027.08.027.133.027-.053.027-.08.027-.133Zm.108.187c0 .027.028 0 .055 0 0-.027-.055-.027-.055 0Zm-.272.267c0 .054-.082.054-.055.134.055-.027.11-.08.055-.134Zm2.099.054v.027h.027s.027-.027.027-.054c-.027 0-.027.027-.054.027Zm0 .08v.027h.027v-.027h-.027Zm-2.127.134v.054h.028v-.054h-.027Zm.927.054c-.027-.08.055-.027 0 0Zm0 0c-.054 0 0 .107-.054.133.054 0 .054-.026.081-.026 0-.054-.054-.027-.027-.107Zm1.145.053c-.027 0 0 .027 0 0Zm-2.099.08c0-.026.027 0 0 0Zm-.027.054s.027 0 .027-.027c0 0-.027 0-.027.027Zm.927 0c0 .134.027-.054 0 0Zm1.172.053c0 .027 0 .054-.055.054.028.16-.027.267-.081.401.054-.027.136-.027.163-.08-.054-.107.055-.294-.027-.375Zm-2.126.08c0 .027 0 .08.054.054 0-.027-.027-.027-.054-.053Zm-.11.803c.028.054-.054.027-.027.08.055.054.055-.08.028-.08Zm-.027.134c-.027 0 0-.027 0 0Zm0 .027c.028 0 .028-.027 0-.027v.027Zm0 0c0 .027-.027.08 0 .08.028-.027.028-.053 0-.08Zm-.027.08c0 .027 0 .027-.027.027v.053c.054.027.054-.08.027-.08Zm-.027.134c0-.08.054 0 0 0Zm0 0c-.027.027 0 .027 0 0Zm.927.294s.027-.027.027 0h-.027Zm-.927.455c-.027.08.082-.027 0 0Zm-.164.615c.028.027 0 .054 0 .08-.027-.026 0-.053 0-.08Zm-.081.723c.027-.08.027.08 0 0Zm1.172 1.471c0 .027-.028.027-.028 0h.028Zm-.028.375c0-.08-.109-.053-.136-.027.055.027 0 .054.027.107.028 0 .055 0 .082.027 0-.053-.054-.16.027-.107Z" fill="#fff"/></svg>